HIERARCHY
ROOT Hips
{
	OFFSET -3.958830 18.904000 13.208200
	CHANNELS 6 Xposition Yposition Zposition Zrotation Yrotation Xrotation 
	JOINT LHipJoint
	{
		OFFSET 0.000000 0.000000 0.000000
		CHANNELS 3 Zrotation Yrotation Xrotation
		JOINT LeftUpLeg
		{
			OFFSET 1.800000 -1.400000 0.085000
			CHANNELS 3 Zrotation Yrotation Xrotation
			JOINT LeftLeg
			{
				OFFSET 2.215000 -6.000000 0.000000
				CHANNELS 3 Zrotation Yrotation Xrotation
				JOINT LeftFoot
				{
					OFFSET 2.500000 -6.900000 0.000000
					CHANNELS 3 Zrotation Yrotation Xrotation
					JOINT LeftToeBase
					{
						OFFSET 0.200000 -0.500000 1.950000
						CHANNELS 3 Zrotation Yrotation Xrotation
						End Site
						{
							OFFSET 0.000000 0.000000 0.000000
						}
					}
				}
			}
		}
	}
	JOINT RHipJoint
	{
		OFFSET 0.000000 0.000000 0.000000
		CHANNELS 3 Zrotation Yrotation Xrotation
		JOINT RightUpLeg
		{
			OFFSET -1.800000 -1.400000 0.085000
			CHANNELS 3 Zrotation Yrotation Xrotation
			JOINT RightLeg
			{
				OFFSET -2.215000 -6.000000 0.000000
				CHANNELS 3 Zrotation Yrotation Xrotation
				JOINT RightFoot
				{
					OFFSET -2.500000 -6.900000 0.000000
					CHANNELS 3 Zrotation Yrotation Xrotation
					JOINT RightToeBase
					{
						OFFSET -0.200000 -0.500000 1.950000
						CHANNELS 3 Zrotation Yrotation Xrotation
						End Site
						{
							OFFSET 0.000000 0.000000 0.000000
						}
					}
				}
			}
		}
	}
	JOINT LowerBack
	{
		OFFSET 0.000000 0.000000 0.000000
		CHANNELS 3 Zrotation Yrotation Xrotation
		JOINT Spine
		{
			OFFSET -0.087000 1.940000 -0.288900
			CHANNELS 3 Zrotation Yrotation Xrotation
			JOINT Spine1
			{
				OFFSET 0.000000 1.950000 0.060000
				CHANNELS 3 Zrotation Yrotation Xrotation
				JOINT Neck
				{
					OFFSET 0.000000 0.000000 0.000000
					CHANNELS 3 Zrotation Yrotation Xrotation
					JOINT Neck1
					{
						OFFSET 0.000000 1.600000 0.340000
						CHANNELS 3 Zrotation Yrotation Xrotation
						JOINT Head
						{
							OFFSET 0.000000 1.667000 -0.240000
							CHANNELS 3 Zrotation Yrotation Xrotation
							End Site
							{
								OFFSET 0.000000 0.000000 0.000000
							}
						}
					}
				}
				JOINT LeftShoulder
				{
					OFFSET 0.000000 0.000000 0.000000
					CHANNELS 3 Zrotation Yrotation Xrotation
					JOINT LeftArm
					{
						OFFSET 2.700000 1.550000 -0.730000
						CHANNELS 3 Zrotation Yrotation Xrotation
						JOINT LeftForeArm
						{
							OFFSET 5.450000 0.000000 0.000000
							CHANNELS 3 Zrotation Yrotation Xrotation
							JOINT LeftHand
							{
								OFFSET 3.450000 0.000000 0.000000
								CHANNELS 3 Zrotation Yrotation Xrotation
								JOINT LeftHandIndex1
								{
									OFFSET 0.750000 0.000000 0.000000
									CHANNELS 3 Zrotation Yrotation Xrotation
									End Site
									{
										OFFSET 0.000000 0.000000 0.000000
									}
								}
							}
						}
					}
				}
				JOINT RightShoulder
				{
					OFFSET 0.000000 0.000000 0.000000
					CHANNELS 3 Zrotation Yrotation Xrotation
					JOINT RightArm
					{
						OFFSET -2.700000 1.550000 -0.730000
						CHANNELS 3 Zrotation Yrotation Xrotation
						JOINT RightForeArm
						{
							OFFSET -5.450000 0.000000 0.000000
							CHANNELS 3 Zrotation Yrotation Xrotation
							JOINT RightHand
							{
								OFFSET -3.450000 0.000000 0.000000
								CHANNELS 3 Zrotation Yrotation Xrotation
								JOINT RightHandIndex1
								{
									OFFSET -0.750000 0.000000 0.000000
									CHANNELS 3 Zrotation Yrotation Xrotation
									End Site
									{
										OFFSET 0.000000 0.000000 0.000000
									}
								}
							}
						}
					}
				}
			}
		}
	}
}
MOTION
Frames: 4
Frame Time: 0.016667
11.349040 17.979350 -16.942320 -9.445432 -35.671762 -3.332834 -15.803936 12.545231 3.346113 22.713551 -2.322160 -6.644964 -13.723248 34.818909 62.838091 12.668049 7.506555 4.663467 5.261920 5.256200 1.962880 18.275903 -5.926671 5.887690 13.544155 21.666140 -41.130818 -11.834340 9.795225 22.935760 0.050928 4.174624 12.679775 3.257710 -9.803210 -5.607020 -3.200215 -5.665300 -9.806767 -1.064361 3.789368 122.015068 2.102605 5.598414 -64.676766 14.217999 -14.268743 -27.553786 -33.689670 4.831378 11.821189 18.924310 3.400870 -24.189970 56.053910 37.012328 12.904450 -76.812478 8.425368 -15.685855 11.958673 -8.178310 6.455229 -2.947352 6.461409 -5.472420 -2.182680 -2.380010 -0.984630 -66.933249 -15.730129 13.504591 107.640071 1.524953 -24.452570 -16.348179 16.760567 5.737838 -2.625696 -7.020615 6.285530 -3.186950 -3.384430 -5.262660 
11.020970 17.973280 -16.633660 -5.449987 -36.195396 3.309781 -15.351417 11.584081 3.065937 16.541435 -2.205573 -10.838550 -13.438598 32.941738 60.417917 12.841957 6.571746 4.712994 5.996170 5.605840 2.796480 18.671339 -6.669272 6.832277 8.892635 23.762144 -52.697913 -10.183509 9.701002 25.049506 -0.109627 4.522936 12.629314 3.255030 -10.269980 -5.419260 -4.486314 -2.361706 -9.428387 -3.974158 1.697283 113.459518 -0.696815 2.864508 -71.142907 18.049234 -14.275472 -30.789994 -40.844831 8.254879 10.967747 26.600870 -4.526080 -20.584840 54.138041 33.342527 12.145144 -67.583397 7.864577 -16.804809 7.512563 -6.551792 6.767246 -2.324479 6.750706 -5.457240 -2.479840 -2.099540 -0.954340 -67.373236 -16.807481 16.360706 105.736186 -12.908777 -35.875150 6.320326 18.782141 8.130232 -3.823488 -6.944182 6.760680 -3.519640 -3.823200 -5.272240 
10.725890 17.983700 -16.205010 -5.854174 -39.662369 14.747928 -15.448044 11.168810 2.853913 13.886634 -1.870614 -16.162173 -16.245731 32.195075 53.944398 12.614753 5.283030 4.696801 6.390200 5.928120 3.069120 18.733153 -5.822431 7.732308 4.453152 27.442420 -64.454383 -5.254111 8.768488 26.384952 -0.196831 4.925609 12.597460 3.371740 -10.524890 -5.322790 -4.358143 -2.584935 -9.536778 -3.623040 -0.558907 99.971859 -2.800826 2.172761 -78.024717 21.625902 -14.056179 -33.661656 -51.601333 14.916981 11.712420 32.311360 -7.019130 -18.756120 51.525837 32.790978 10.499800 -59.589233 12.179708 -18.410220 4.896525 -5.595336 6.823012 -2.106898 6.698281 -5.372010 -2.686830 -1.887980 -0.906870 -69.419849 -16.726977 16.619071 101.263621 -20.136403 -36.123802 9.392013 11.471908 7.021937 -3.403216 -6.199156 7.002020 -3.726010 -4.032870 -5.234770 
10.433580 18.005730 -15.814060 -3.470724 -43.663598 20.845103 -15.486189 11.407436 2.610025 6.814827 -2.260217 -18.807327 -14.411924 28.369769 50.780915 12.158786 3.727971 4.764138 6.427840 6.210310 2.914630 18.705760 -5.664521 7.981914 0.631531 27.520860 -71.945603 0.736228 7.066858 26.584999 -0.218577 5.143209 12.683577 3.519990 -10.571540 -5.504450 -3.997479 -2.983348 -9.421925 -3.560529 -1.574492 82.233740 -2.185331 1.410068 -80.493374 22.814530 -11.659511 -36.581157 -59.717647 24.497287 19.939057 36.161050 -4.784580 -18.272150 49.784157 29.928030 10.589003 -52.798686 20.273449 -21.323286 4.535549 -7.992355 6.878550 -2.091154 6.527246 -5.317210 -2.786790 -1.829120 -0.874830 -71.216716 -16.287160 16.283515 95.282501 -22.104326 -31.179300 4.952812 2.758230 6.055821 -2.611047 -5.280460 7.019700 -3.633370 -3.993730 -5.207700 
